<?xml version="1.0" standalone="no"?>
<!DOCTYPE svg PUBLIC "-//W3C//DTD SVG 1.1//EN" "http://www.w3.org/Graphics/SVG/1.1/DTD/svg11.dtd" >
<svg xmlns="http://www.w3.org/2000/svg">
<metadata>
This is a custom SVG webfont generated by Font Squirrel.
Copyright   : Copyright  1992 2002 Adobe Systems Incorporated  All Rights Reserved  Copyright 1991 2002 The Monotype Corporaton plc All Rights Reserved
Designer    : Margaret Calvert
Foundry URL : httpwwwadobecomtype
</metadata>
<defs>
<font id="CalvertMTStdBold" horiz-adv-x="1259" >
<font-face units-per-em="2048" ascent="1526" descent="-522" />
<missing-glyph horiz-adv-x="569" />
<glyph unicode=" "  horiz-adv-x="569" />
<glyph unicode="&#x09;" horiz-adv-x="569" />
<glyph unicode="&#xa0;" horiz-adv-x="569" />
<glyph unicode="!" horiz-adv-x="598" d="M152 0v254h297v-254h-297zM154 1513h280l-28 -1122h-216z" />
<glyph unicode="&#x22;" horiz-adv-x="854" d="M82 1217v247h285v-247l-45 -273h-187zM489 1217v247h285v-247l-45 -273h-186z" />
<glyph unicode="#" horiz-adv-x="1368" d="M78 336v190h209l63 301h-272v191h309l84 383h188l-84 -383h355l82 383h190l-82 -383h168v-191h-205l-63 -301h268v-190h-303l-84 -379h-188l82 379h-359l-78 -379h-190l80 379h-170zM477 526h354l64 301h-356z" />
<glyph unicode="$" d="M98 442h267q8 -113 51 -166t133 -63v391l-41 17l-95 35q-34 13 -94.5 49t-93 74t-59.5 102.5t-27 144.5q0 31 6.5 69t32 95t66.5 105t119.5 89t183.5 56v80h192v-80q203 -25 298.5 -162t103.5 -315h-264q-4 88 -36 137t-102 78v-361l117 -46q43 -17 108.5 -57t101.5 -81 t63.5 -106.5t27.5 -145.5q0 -113 -60.5 -206t-166.5 -146q-61 -35 -189 -58v-139h-192v141q-209 25 -326 146.5t-125 322.5zM414 1040q0 -109 133 -149v297q-70 -10 -101.5 -57.5t-31.5 -90.5zM741 537v-314q66 12 104 51t38 95q0 117 -140 170z" />
<glyph unicode="%" horiz-adv-x="1984" d="M143 1141q0 168 98.5 275.5t252.5 107.5q160 0 260 -106.5t100 -276.5q0 -182 -99.5 -293t-261 -111t-256 109t-94.5 295zM354 1135q0 -231 148 -232q66 0 103.5 59.5t37.5 166t-38 168t-103 61.5q-68 0 -108 -60.5t-40 -162.5zM502 -70l815 1594h164l-817 -1594h-162z M1128 326q0 172 97.5 280.5t249.5 108.5q162 0 264 -106.5t102 -272.5q0 -188 -98 -297t-268 -109q-31 0 -69 8.5t-89 34t-91 66.5t-69 116t-29 171zM1339 317q0 -106 38 -163.5t108 -57.5q66 0 105.5 60.5t39.5 160.5q-4 231 -149 232q-70 0 -107 -61q-35 -57 -35 -159v-12 z" />
<glyph unicode="&#x26;" horiz-adv-x="1409" d="M78 434q0 115 55 203t180 172q-76 84 -106.5 149.5t-30.5 143.5q0 150 112.5 249t280.5 99q160 0 263.5 -97.5t103.5 -248.5q0 -72 -25.5 -132.5t-72.5 -105.5t-77 -66.5t-75 -47.5l260 -301q40 87 40 220q0 18 -1 38l334 8l4 -228l-127 -4q-18 -115 -90 -221 q27 -33 42 -44t50 -11q57 2 115 16l37 -213l-7 -10q-121 -37 -202 -37q-70 0 -99.5 16.5t-107.5 90.5q-127 -70 -193.5 -93.5t-167.5 -23.5q-205 0 -350 140t-145 339zM360 422q0 -92 73 -163t167 -71q82 0 191 66l-316 362q-115 -75 -115 -194zM428 1104q0 -76 94 -162 q158 86 158 174q0 55 -37 90t-96 35q-51 0 -85 -39t-34 -98z" />
<glyph unicode="'" horiz-adv-x="598" d="M152 1217v247h294v-247l-45 -273h-196z" />
<glyph unicode="(" horiz-adv-x="768" d="M76 545q0 94 8 160.5t38 179t102.5 257t191.5 328.5l24 39h252q-176 -299 -248.5 -489.5t-72.5 -444.5q0 -258 54 -443t241 -480l30 -49h-254q-74 111 -120 187.5t-112.5 208.5t-100 270.5t-33.5 275.5z" />
<glyph unicode=")" horiz-adv-x="768" d="M72 -397l30 49q186 295 240.5 480t54.5 443q0 254 -72.5 444.5t-248.5 489.5h252l24 -39q119 -184 191.5 -328.5t102.5 -257t38 -179t8 -160.5q0 -137 -33.5 -275.5t-100 -270.5t-113 -209t-119.5 -187h-254z" />
<glyph unicode="*" horiz-adv-x="1087" d="M78 965v209l332 -25l-187 274l178 103l148 -299l141 299l178 -103l-186 -274l328 25v-211l-334 30l186 -280l-174 -101l-143 306l-139 -312l-183 111l195 276z" />
<glyph unicode="+" horiz-adv-x="1366" d="M125 569v215h448v451h215v-451h451v-215h-451v-446h-215v446h-448z" />
<glyph unicode="," horiz-adv-x="598" d="M147 0v295h297v-299q0 -109 -72 -189q-69 -76 -206 -75h-14l-2 100q88 16 112.5 47t26.5 121h-142z" />
<glyph unicode="-" horiz-adv-x="747" d="M111 440v230h526v-230h-526z" />
<glyph unicode="." horiz-adv-x="598" d="M152 0v295h294v-295h-294z" />
<glyph unicode="/" horiz-adv-x="960" d="M80 -375l590 1903h213l-584 -1903h-219z" />
<glyph unicode="0" d="M55 717q0 365 165 566q158 194 397 194h20h-4q248 0 409.5 -199t161.5 -561q0 -344 -149.5 -545t-417.5 -201t-425 202t-157 544zM365 719q0 -489 268 -490q262 0 262 461q0 528 -262 529q-137 0 -202.5 -123t-65.5 -377z" />
<glyph unicode="1" d="M365 965v299l215 186h254v-1217h141v-233h-578v236h142v880z" />
<glyph unicode="2" d="M102 936q6 160 43 248q51 121 175 208t298 87q219 0 363.5 -121t144.5 -301q0 -111 -57 -203t-213 -236l-420 -387h441v125h253v-356h-1009v233l565 562q82 82 112.5 132t30.5 105q0 82 -57 136.5t-147 54.5q-221 0 -232 -287h-291z" />
<glyph unicode="3" horiz-adv-x="1251" d="M72 494h286q18 -125 86 -197t177 -72q106 0 182 73t76 175q0 98 -63.5 166t-153.5 68q-45 0 -117 -27l-144 164l418 366h-448v-137h-252v377h1030v-270l-315 -277q150 -6 247 -129t97 -280q0 -219 -157 -373t-380 -154q-250 0 -396 136.5t-173 390.5z" />
<glyph unicode="4" d="M57 395v232l662 817h346l-676 -826h338v222l277 340v-562h188v-223h-186v-159h114v-236h-508v233h117v162h-672z" />
<glyph unicode="5" d="M84 393h315q55 -166 230 -166q102 0 170.5 82t68.5 203q0 113 -69.5 184.5t-177.5 71.5q-166 0 -238 -160h-283l50 842h964v-332h-258v107h-440l-17 -328q96 68 157.5 92.5t137.5 24.5q197 0 337 -147.5t140 -354.5q0 -238 -158.5 -387.5t-412.5 -149.5t-401 183 q-84 100 -115 235z" />
<glyph unicode="6" d="M90 684q0 381 151.5 586t434.5 205q209 0 354 -134q109 -98 129 -256h-295q-53 145 -194 146q-78 0 -140.5 -49t-97.5 -140q-31 -84 -31 -208q135 160 316 159q201 0 330 -141t129 -363q0 -223 -147.5 -367.5t-379.5 -144.5q-250 0 -404.5 196t-154.5 511zM416 496 q0 -111 68.5 -189t164.5 -78q102 0 167 75t65 194q0 115 -63.5 184.5t-168.5 69.5q-96 0 -164.5 -75t-68.5 -181z" />
<glyph unicode="7" d="M90 1006v446h1079v-235l-464 -981h114v-236h-563v233h117l489 981h-520v-208h-252z" />
<glyph unicode="8" d="M80 428q0 236 217 336q-176 111 -176 295q0 186 138 301t362 115q229 0 372.5 -113t143.5 -293q0 -102 -38 -170t-134 -137q111 -61 163 -138t52 -192q0 -207 -153 -334t-400 -127q-240 0 -393.5 128t-153.5 329zM381 434q0 -84 70.5 -146.5t166.5 -62.5q119 0 190 56.5 t71 152.5q0 86 -64.5 146.5t-193.5 60.5q-111 -2 -175.5 -58.5t-64.5 -148.5zM410 1038q0 -76 62.5 -128t152.5 -52q102 0 162.5 50t60.5 132q0 78 -64.5 131.5t-158.5 53.5q-96 0 -155.5 -51.5t-59.5 -135.5z" />
<glyph unicode="9" d="M76 967q0 209 150.5 358.5t361.5 149.5q219 0 368 -146q199 -197 199 -604q0 -342 -156.5 -546t-418.5 -204q-203 0 -344 117q-117 102 -150 273h299q35 -78 79 -111t116 -33q106 0 188 90q80 88 80 299v11q-131 -164 -320 -164q-199 0 -325.5 143.5t-126.5 366.5z M365 958.5q0 -112.5 64.5 -187.5t160.5 -75q102 0 173 76t71 189q0 106 -69 185t-163 79q-100 0 -168.5 -77t-68.5 -189.5z" />
<glyph unicode=":" horiz-adv-x="598" d="M152 0v295h292v-295h-292zM154 801v295h292v-295h-292z" />
<glyph unicode=";" horiz-adv-x="598" d="M150 0v295h294v-287q0 -188 -155 -256q-47 -20 -137 -22v104q76 4 107.5 40t35.5 126h-145zM152 801v295h292v-295h-292z" />
<glyph unicode="&#x3c;" horiz-adv-x="1366" d="M127 580v192l1112 465v-231l-819 -330l819 -328v-233z" />
<glyph unicode="=" horiz-adv-x="1366" d="M127 332v215h1112v-215h-1112zM127 809v215h1112v-215h-1112z" />
<glyph unicode="&#x3e;" horiz-adv-x="1366" d="M127 115v233l819 328l-819 330v231l1112 -463v-194z" />
<glyph unicode="?" horiz-adv-x="1130" d="M80 1077q16 135 53 211q121 250 434 250q215 0 352.5 -121t137.5 -311q0 -207 -154 -330q-70 -55 -207 -92v-293h-264v445q109 4 172.5 23.5t112.5 64.5q66 66 65 161q0 94 -59 157t-150 63q-94 0 -146 -54.5t-73 -173.5h-274zM420 0v252h289v-252h-289z" />
<glyph unicode="@" horiz-adv-x="1996" d="M45 481q0 145 36 284.5t115.5 272.5t196.5 232.5t291 160t385 60.5q381 0 616.5 -213t235.5 -557q0 -295 -194.5 -508t-464.5 -213q-156 0 -185 115q-119 -115 -272 -115q-172 0 -277.5 118t-105.5 310q0 102 35 214t99.5 212t171 164.5t235.5 64.5q176 0 264 -135 l24 111h265l-152 -717q-14 -68 -14 -88q0 -49 39 -49q94 0 223 156.5t129 369.5q0 260 -185.5 418t-490.5 158q-199 0 -353.5 -61.5t-242.5 -151.5t-145.5 -209t-77 -219.5t-19.5 -196.5q0 -332 226.5 -523.5t619.5 -191.5q475 0 688 264h211q-106 -217 -332.5 -332.5 t-543.5 -115.5q-506 0 -778.5 246.5t-272.5 664.5zM680 421q0 -108 47 -171q49 -66 131 -66q70 0 126 39t90 97.5t56.5 128t31.5 125t9 96.5q0 106 -51 169.5t-135 63.5q-127 0 -212 -133q-93 -146 -93 -349z" />
<glyph unicode="A" horiz-adv-x="1492" d="M66 0v236h110l402 1208h346l397 -1208h109v-236h-332l-94 313h-508l-95 -313h-335zM559 535h381l-188 639z" />
<glyph unicode="B" horiz-adv-x="1366" d="M53 0v236h113v972h-109v236h551q319 0 408 -39q86 -37 153.5 -127t67.5 -221q0 -109 -41 -172.5t-145 -120.5q125 -51 182 -135t57 -226q0 -182 -128 -292.5t-337 -110.5h-772zM461 236h303q96 0 162.5 56t66.5 138q0 90 -70.5 145.5t-187.5 55.5h-274v-395zM461 858h284 q92 0 149.5 51.5t57.5 132.5q0 72 -63.5 119t-163.5 47h-264v-350z" />
<glyph unicode="C" horiz-adv-x="1472" d="M70 715q0 334 182 550t465 216q90 0 161.5 -17.5t122 -53.5t76 -62.5t60.5 -69.5v166h252v-500h-261q-37 96 -88 158q-111 127 -276 127q-178 0 -276.5 -135.5t-98.5 -378.5q0 -233 102.5 -368.5t278.5 -135.5q156 0 262 119q51 59 90 166h297q-78 -268 -242.5 -402.5 t-435.5 -134.5q-297 0 -484 211t-187 545z" />
<glyph unicode="D" horiz-adv-x="1492" d="M70 0v236h112v972h-110v236h645q334 0 522 -192.5t188 -532.5q0 -334 -167 -524q-174 -195 -517 -195h-673zM477 236h248q182 0 282.5 123.5t100.5 345.5q0 276 -129 397q-111 106 -313 106h-189v-972z" />
<glyph unicode="E" horiz-adv-x="1280" d="M55 0v236h117v972h-115v236h1106v-453h-241v217h-455v-346h453v-235h-453v-391h469v241h256v-477h-1137z" />
<glyph unicode="F" horiz-adv-x="1236" d="M61 1208v236h1110v-447h-239v211h-453v-346h451v-233h-451v-393h160v-236h-576v236h121v972h-123z" />
<glyph unicode="G" horiz-adv-x="1536" d="M82 727q0 324 185.5 538t465.5 214q84 0 150.5 -18.5t117 -57.5t71 -60.5t56.5 -66.5v168h246v-459h-250q-119 246 -350 246q-168 0 -271.5 -145.5t-103.5 -380.5q0 -221 104.5 -356.5t274.5 -135.5q190 0 291 170q35 57 57 152h-313v237h586v-772h-266v172 q-45 -57 -85 -96t-126 -78t-187 -39q-287 0 -470 215t-183 553z" />
<glyph unicode="H" horiz-adv-x="1449" d="M55 0v236l117 2v972h-117v234h525v-234h-113v-344h522v344h-115v234h523v-234h-113v-974h113v-236h-520v236h112v391h-522v-391h115v-236h-527z" />
<glyph unicode="I" horiz-adv-x="641" d="M59 0v236h117v972h-115v236h521v-236h-111v-972h113v-236h-525z" />
<glyph unicode="J" horiz-adv-x="788" d="M68 -4v240h131q63 0 91.5 35.5t28.5 113.5v823h-116v236h526v-236h-113v-950q0 -162 -63.5 -222.5t-230.5 -60.5q-47 1 -254 21z" />
<glyph unicode="K" horiz-adv-x="1386" d="M72 1208v236h516v-236h-109v-350l527 586h245v-236h-114l-314 -338l398 -634h112v-236h-303l-401 666l-150 -166v-264h109v-236h-514v236h110v972h-112z" />
<glyph unicode="L" horiz-adv-x="1193" d="M55 0v236h115v972h-113v236h521v-236h-113v-972h395v239h256v-475h-1061z" />
<glyph unicode="M" horiz-adv-x="1771" d="M61 0v236h113v972h-113v236h545l146 -524l139 -531l135 539l139 516h545v-236h-115v-972h115v-236h-377v926l6 272l2 64l-354 -1262h-196l-365 1288l16 -430v-858h-381z" />
<glyph unicode="N" horiz-adv-x="1622" d="M63 0v236h117v972h-114v236h499l619 -1118v882h-119v236h496v-236h-115v-1208h-397l-607 1094v-858h113v-236h-492z" />
<glyph unicode="O" horiz-adv-x="1536" d="M76 733q0 309 188.5 528.5t501.5 219.5q176 0 312 -64.5t218 -175.5t123 -243t41 -279q0 -346 -190.5 -553t-507.5 -207q-305 0 -495.5 214t-190.5 560zM395 741q0 -303 129 -430q100 -100 250 -100q131 0 236 100q131 125 131 430q0 231 -95.5 358.5t-271.5 127.5 q-178 0 -278.5 -128.5t-100.5 -357.5z" />
<glyph unicode="P" d="M59 1444h684q205 0 333 -129t128 -336q0 -197 -131 -322t-338 -125h-264v-296h113v-236h-523v236h115v972h-117v236zM471 770h197q106 0 173.5 61.5t67.5 157.5q0 100 -68.5 159.5t-185.5 59.5h-184v-438z" />
<glyph unicode="Q" horiz-adv-x="1536" d="M76 733q0 309 188.5 528.5t501.5 219.5q176 0 312 -64.5t218 -175.5t123 -243t41 -279q0 -276 -125 -468t-344 -259q86 -55 170 -55q80 0 213 10l39 4l17 -238q-147 -25 -226 -24q-166 0 -306 64.5t-320 230.5q-229 59 -365.5 259.5t-136.5 489.5zM395 741 q0 -303 129 -430q100 -100 250 -100q131 0 236 100q131 125 131 430q0 231 -95.5 358.5t-271.5 127.5q-178 0 -278.5 -128.5t-100.5 -357.5z" />
<glyph unicode="R" horiz-adv-x="1386" d="M74 0v236h121v972h-119v236h665q158 0 265.5 -41t155.5 -108.5t65.5 -126t17.5 -121.5q0 -225 -198 -312q109 -55 150.5 -140t41.5 -286v-73h119v-236h-406v362q0 256 -258 256h-205v-382h101v-236h-516zM489 840h232q111 0 173 51t62 141q0 176 -274 176h-193v-368z" />
<glyph unicode="S" horiz-adv-x="1280" d="M66 1049q0 174 135 296.5t323 122.5q106 0 192.5 -33.5t123.5 -64.5t80 -80v154h229v-430h-223q-25 45 -44.5 71.5t-60.5 67.5t-101.5 61.5t-137.5 20.5q-96 0 -165 -50t-69 -122q0 -76 61.5 -108.5t233.5 -49.5q233 -27 350 -90q90 -51 144.5 -126t70 -133t15.5 -118 q0 -197 -142.5 -333t-347.5 -136q-111 0 -206 39t-133 72t-89 84v-164h-239v479h237q102 -258 361 -258q119 0 193.5 54.5t74.5 138.5q0 45 -19.5 78.5t-44 52t-78 33t-87 20.5t-105.5 14q-109 12 -166 23.5t-133 47.5t-131 95q-102 113 -102 271z" />
<glyph unicode="T" horiz-adv-x="1280" d="M63 879v565h1154v-565h-240v329h-189v-972h134v-236h-562v236h132v972h-189v-329h-240z" />
<glyph unicode="U" horiz-adv-x="1556" d="M61 1208v236h525v-236h-115v-673q0 -147 83 -232.5t220 -85.5q145 0 229 84t84 234v673h-112v236h520v-236h-113v-684q0 -250 -165.5 -407.5t-425.5 -157.5q-281 0 -448 160t-167 428v661h-115z" />
<glyph unicode="V" horiz-adv-x="1492" d="M66 1208v236h507v-236h-102l277 -925l280 925h-106v236h508v-236h-111l-395 -1208h-349l-401 1208h-108z" />
<glyph unicode="W" horiz-adv-x="2091" d="M70 1210v234h497v-234h-106l178 -913l248 1147h323l226 -1145l190 911h-104v234h501v-234h-110l-303 -1210h-344l-217 1106l-226 -1106h-342l-303 1210h-108z" />
<glyph unicode="X" horiz-adv-x="1323" d="M66 0v236h108l334 509l-295 463h-109v236h293l262 -445l263 445h292v-236h-104l-293 -463l332 -509h108v-236h-311l-284 494l-283 -494h-313z" />
<glyph unicode="Y" horiz-adv-x="1280" d="M66 1208v236h309l266 -549l266 549h310v-236h-105l-326 -622v-350h113v-236h-522v236h115v352l-320 620h-106z" />
<glyph unicode="Z" horiz-adv-x="1216" d="M53 0v233l744 975h-426v-159h-252v395h1026v-236l-723 -972h481v165h254v-401h-1104z" />
<glyph unicode="[" horiz-adv-x="747" d="M176 -371v1856h529v-230h-250v-1396h250v-230h-529z" />
<glyph unicode="\" horiz-adv-x="960" d="M80 1528h213l590 -1903h-219z" />
<glyph unicode="]" horiz-adv-x="747" d="M43 1255v230h528v-1856h-524v230h246v1396h-250z" />
<glyph unicode="^" horiz-adv-x="1196" d="M115 692l377 799h223l366 -799h-284l-199 490l-197 -490h-286z" />
<glyph unicode="_" horiz-adv-x="1024" d="M0 -154h1024v-102h-1024v102z" />
<glyph unicode="`" horiz-adv-x="681" d="M-10 1516h346l164 -299h-193z" />
<glyph unicode="a" horiz-adv-x="1216" d="M78 319q0 68 23.5 122.5t55 90t94 65.5t111 46t136.5 30.5t140 19.5l153 16q-2 127 -43 169t-160 42q-84 0 -138.5 -45.5t-58.5 -120.5l-266 8q10 164 133 262t317 98q227 0 347 -99t120 -288v-522h95v-213h-340v129q-84 -84 -158 -118t-174 -34q-164 0 -275.5 98.5 t-111.5 243.5zM360 319q0 -68 49.5 -108.5t131.5 -40.5q104 0 174.5 69.5t70.5 172.5v106q-92 -8 -145 -15t-114.5 -21.5t-92.5 -34t-52.5 -51.5t-21.5 -77z" />
<glyph unicode="b" horiz-adv-x="1300" d="M59 0v213h115v1085h-104v213h372v-536q82 84 153 118.5t159 34.5q207 0 340 -159.5t133 -407.5q0 -264 -126 -426t-333 -162q-102 0 -173 31t-165 115v-119h-371zM434 545q0 -168 67.5 -256t196.5 -88q113 0 180.5 95t67.5 255q0 162 -66.5 256t-181.5 94 q-125 0 -194.5 -93t-69.5 -263z" />
<glyph unicode="c" horiz-adv-x="1193" d="M72 555q0 252 140 412.5t363 160.5q92 0 163 -33.5t147 -111.5v113h229v-404h-240q-41 106 -106 158q-63 51 -156 51q-117 0 -190.5 -93t-73.5 -239q0 -166 73 -264t197 -98q180 0 246 196h271q-45 -203 -185.5 -315.5t-341.5 -112.5q-236 0 -386 162t-150 418z" />
<glyph unicode="d" horiz-adv-x="1300" d="M78 549q0 252 132 415.5t335 163.5q100 0 175 -34.5t146 -118.5v323h-102v213h371v-1298h100v-213h-369v123q-156 -150 -307 -150q-219 0 -350 158t-131 418zM354 551q0 -156 70 -255t178 -99q104 0 176 71q88 88 88 291q0 145 -64.5 241.5t-199.5 96.5 q-115 -4 -181.5 -96t-66.5 -250z" />
<glyph unicode="e" horiz-adv-x="1193" d="M57 551q0 250 152.5 413.5t382.5 163.5q131 0 240.5 -58t181.5 -165q47 -72 71.5 -154.5t29.5 -129t7 -125.5h-790q10 -98 44 -165t81 -92.5t77.5 -33.5t61.5 -8q160 0 223 163h285q-37 -178 -175 -281.5t-339 -103.5q-231 0 -382 162t-151 414zM346 684h477 q-14 104 -74.5 159.5t-156.5 55.5q-90 0 -154.5 -57.5t-91.5 -157.5z" />
<glyph unicode="f" horiz-adv-x="681" d="M49 881v215h148v137q0 57 2 85t10 67.5t27.5 59t53.5 40t88 29t130 8.5q94 0 166 -13v-209q-36 1 -65 2h-28q-40 -1 -66 -10.5t-38 -32t-12 -63.5v-100h178v-213h-178v-670h108v-213h-479v213h105v668h-150z" />
<glyph unicode="g" horiz-adv-x="1280" d="M70 582q0 238 128 387t332 149q143 0 314 -141v119h370v-213h-100v-844q0 -197 -139 -307.5t-387 -110.5q-244 0 -375 113q-53 43 -80 92t-51 147h264q53 -143 238 -143q119 0 189.5 56.5t70.5 148.5v174q-135 -162 -332 -162q-193 0 -317.5 151t-124.5 384zM350 578 q0 -147 62.5 -227.5t179.5 -80.5q111 0 182.5 89.5t71.5 226.5q0 131 -66.5 218t-169.5 87q-119 0 -189.5 -85t-70.5 -228z" />
<glyph unicode="h" d="M49 1511h381v-538q49 43 83 68.5t105.5 54t145.5 28.5q156 0 249 -93t93 -249v-569h100v-213h-368v741q0 74 -43 116t-119 42q-102 0 -174 -87t-72 -214v-385h100v-213h-479v213h111v1085h-113v213z" />
<glyph unicode="i" horiz-adv-x="598" d="M70 0v213h108v670h-104v213h372v-883h93v-213h-469zM154 1249v258h295v-258h-295z" />
<glyph unicode="j" horiz-adv-x="661" d="M39 -156h72q72 0 95 25t23 98v916h-98v213h369v-1211q0 -137 -65.5 -198.5t-215.5 -61.5q-82 0 -180 13v206zM209 1257v256h293v-256h-293z" />
<glyph unicode="k" horiz-adv-x="1216" d="M55 1298v213h369v-796l397 381h238v-213h-109l-190 -168l303 -502h90v-213h-254l-321 541l-154 -129v-199h113v-213h-469v213h88v1085h-101z" />
<glyph unicode="l" horiz-adv-x="598" d="M68 0v213h106v1085h-106v213h374v-1298h105v-213h-479z" />
<glyph unicode="m" horiz-adv-x="1792" d="M70 883v213h362v-129q88 92 153.5 124.5t159.5 32.5q92 0 151.5 -37.5t111.5 -132.5q43 45 72.5 73t104.5 62.5t154 34.5q133 0 215 -86t82 -225v-600h103v-213h-371v737q0 72 -31.5 113t-85.5 41q-84 0 -150.5 -91t-66.5 -206v-381h107v-213h-375v727q0 164 -115 164 q-90 0 -155.5 -95.5t-63.5 -226.5v-356h107v-213h-467v213h92v670h-94z" />
<glyph unicode="n" d="M63 0v213h103v670h-103v213h371v-140q43 45 75 74t105.5 61.5t155.5 32.5q145 0 242.5 -93t97.5 -234v-584h100v-213h-368v733q0 78 -43 121t-119 43q-98 0 -172 -84t-74 -195v-405h101v-213h-472z" />
<glyph unicode="o" horiz-adv-x="1236" d="M74 551q0 248 157.5 412.5t393.5 164.5q225 0 381.5 -167.5t156.5 -409.5q0 -246 -154.5 -412t-383.5 -166q-238 0 -394.5 164t-156.5 414zM356 555q0 -156 71 -251t187 -95q121 0 193 93t72 253q0 147 -75 242.5t-189.5 95.5t-186.5 -93t-72 -245z" />
<glyph unicode="p" horiz-adv-x="1300" d="M70 -137h98v1020h-98v213h368v-111q137 143 324 143q207 0 337 -162.5t130 -422.5q0 -248 -134 -409t-341 -161q-94 0 -166 35t-150 119v-264h105v-213h-473v213zM440 551q0 -195 80 -277q80 -76 170 -75q117 0 186.5 93t69.5 249q0 168 -68.5 264t-187.5 96 q-98 0 -174 -80q-43 -43 -59.5 -103.5t-16.5 -166.5z" />
<glyph unicode="q" horiz-adv-x="1300" d="M76 565q0 246 131 404.5t332 158.5q92 0 161.5 -30.5t163.5 -114.5v113h369v-213h-100v-1020h102v-213h-473v213h102v266q-129 -156 -334 -156q-199 0 -326.5 166t-127.5 426zM354 549q0 -158 69 -255t179 -97q102 0 172 69q90 88 90 289q0 199 -80 279q-70 70 -174 69 q-121 0 -188.5 -94t-67.5 -260z" />
<glyph unicode="r" horiz-adv-x="854" d="M49 0v213h107v670h-105v213h373v-170q53 104 117.5 150t156.5 46q49 0 123 -14v-256q-70 14 -133 14q-109 0 -186.5 -66.5t-77.5 -160.5v-426h131v-213h-506z" />
<glyph unicode="s" horiz-adv-x="1067" d="M70 788q0 141 107.5 236.5t268.5 95.5q88 0 158 -31.5t141 -105.5v113h213v-340h-213q-61 174 -247 174q-84 0 -134.5 -33t-50.5 -88q0 -51 44 -69.5t208 -34.5q442 -47 443 -371q0 -152 -111 -252t-279 -100q-92 0 -167.5 31.5t-103.5 57t-66 68.5v-139h-211v389h206 q51 -104 113 -151q68 -49 160 -50q88 0 144.5 39t56.5 99q0 61 -49.5 86.5t-190.5 42.5q-227 23 -315 90q-125 93 -125 243z" />
<glyph unicode="t" horiz-adv-x="704" d="M37 883v213h137v350h266v-350h215v-213h-215v-566q0 -115 129 -114h86v-203q-88 -14 -166 -14q-41 0 -64.5 1t-66.5 6t-70.5 19.5t-57 37t-44 60t-14.5 89.5v684h-135z" />
<glyph unicode="u" d="M53 1096h375v-709q0 -190 158 -190q98 0 174 87t76 199v400h-107v213h375v-883h100v-213h-362v133q-66 -53 -104 -80.5t-106.5 -53.5t-144.5 -26q-158 0 -242.5 93.5t-84.5 263.5v553h-107v213z" />
<glyph unicode="v" horiz-adv-x="1193" d="M49 883v213h430v-213h-82l199 -604l192 604h-81v213h440v-213h-96l-308 -883h-292l-312 883h-90z" />
<glyph unicode="w" horiz-adv-x="1705" d="M51 883v213h438v-213h-110l151 -645l181 858h282l183 -848l145 635h-107v213h441v-213h-94l-236 -883h-291l-182 762l-172 -762h-295l-242 883h-92z" />
<glyph unicode="x" horiz-adv-x="1067" d="M51 0v213h94l240 362l-207 308h-98v213h272l180 -301l189 301h266v-213h-94l-211 -305l248 -365h86v-213h-273l-211 346l-204 -346h-277z" />
<glyph unicode="y" horiz-adv-x="1193" d="M49 883v213h459v-213h-96l198 -555l176 555h-94v213h453v-213h-94l-385 -1143q-25 -74 -81.5 -100.5t-187.5 -26.5q-113 0 -172 10v221h148q45 0 65.5 23.5t40.5 97.5l8 27l-346 891h-92z" />
<glyph unicode="z" horiz-adv-x="980" d="M57 0v211l553 672h-270v-144h-227v357h815v-213l-555 -670h342v147h227v-360h-885z" />
<glyph unicode="{" horiz-adv-x="796" d="M63 436v242q143 6 181.5 91t38.5 302q0 82 4 131t16 107.5t40 91.5t72 62.5t113.5 42t165.5 12.5h54v-240q-131 0 -168 -24.5t-37 -120.5q0 -211 -22.5 -325t-56.5 -159t-110 -92q111 -63 149 -175t40 -400q0 -94 37.5 -120t164.5 -26v-239h-51q-117 0 -176 12t-110 47 q-59 39 -88 105.5t-33 127t-4 189.5q0 205 -44.5 278.5t-175.5 79.5z" />
<glyph unicode="|" horiz-adv-x="1202" d="M494 -512v2048h217v-2048h-217z" />
<glyph unicode="}" horiz-adv-x="796" d="M49 -164q127 0 166 25.5t39 120.5q0 289 38 399.5t148 175.5q-66 41 -98.5 80t-50.5 98q-37 104 -37 398q0 96 -37 120.5t-168 24.5v240h53q115 0 174.5 -12.5t112.5 -47.5q59 -39 88 -105.5t33 -127t4 -189.5q0 -205 43 -278.5t176 -79.5v-242q-143 -6 -181 -91 t-38 -302q0 -82 -4 -131t-16.5 -107.5t-40 -91t-71.5 -62.5t-113.5 -42t-166.5 -12h-53v239z" />
<glyph unicode="~" horiz-adv-x="1366" d="M129 496q8 193 92 282q76 82 193 82q119 0 383 -117q137 -61 198 -61q154 0 172 176h70q-6 -170 -83 -267t-206 -97q-68 0 -134 20.5t-247 97.5q-137 59 -205 60q-139 0 -163 -176h-70z" />
<glyph unicode="&#xa1;" horiz-adv-x="598" d="M152 907v254h297v-254h-297zM158 -350l37 1122h215l28 -1122h-280z" />
<glyph unicode="&#xa2;" horiz-adv-x="1193" d="M82 555q0 252 140 412.5t364 160.5q43 0 69 -8l74 387h115l-80 -422q61 -29 131 -102v113h229v-404h-239q-55 141 -160 189l-127 -670q10 -4 31 -4q182 0 245 196h271q-45 -203 -185.5 -315.5t-341.5 -112.5q-33 0 -63 7l-68 -359h-114l71 381q-168 53 -265 200.5 t-97 350.5zM358 569q0 -231 134 -319l122 651q-113 -2 -184.5 -95.5t-71.5 -236.5z" />
<glyph unicode="&#xa3;" d="M111 602v236h122q-49 152 -49 264q0 55 24.5 114.5t76 121t149.5 100.5t225 39q336 0 459 -283q35 -80 45 -213h-276q-10 244 -219 244q-88 0 -144.5 -62.5t-56.5 -161.5q0 -72 41 -163h244v-236h-191q6 -29 6 -65q0 -158 -96 -304h418v129h254v-362h-963v233 q117 164 117 308q0 8 -4 61h-182z" />
<glyph unicode="&#xa4;" horiz-adv-x="1366" d="M158 295l131 131q-72 113 -72 254q0 117 72 248l-131 131l139 141l131 -131q121 76 264 76q141 0 246 -76l129 131l141 -141l-129 -131q72 -121 72 -256t-76 -248l133 -129l-141 -141l-131 129q-115 -74 -256 -74q-133 0 -250 74l-129 -129zM418 678q0 -113 77.5 -190.5 t188.5 -77.5t188.5 78.5t77.5 189t-77.5 188.5t-186.5 78q-113 0 -190.5 -77.5t-77.5 -188.5z" />
<glyph unicode="&#xa5;" horiz-adv-x="1280" d="M168 1206v238h309l166 -549l162 549h309v-238h-145l-97 -323h201l2 -138h-291v-172h291v-137h-291v-203h117v-233h-522v233h115v203h-285v137h285v172h-285v138h205l-97 323h-149z" />
<glyph unicode="&#xa6;" horiz-adv-x="1202" d="M494 -358v716h217v-716h-217zM494 666v716h217v-716h-217z" />
<glyph unicode="&#xa7;" horiz-adv-x="1067" d="M72 553q0 59 21.5 112.5t63.5 97.5t66.5 65.5t65.5 50.5q-84 61 -121 122.5t-37 141.5q0 164 121 271.5t303 107.5q193 0 315 -123q47 -47 70 -97.5t33 -140.5h-260q-6 147 -156 148q-68 0 -112 -34t-44 -87q0 -43 31 -72t109 -59q266 -104 366.5 -184t100.5 -224 q0 -121 -55.5 -192.5t-161.5 -145.5q39 -27 61 -45t59 -57t56.5 -92.5t19.5 -116.5q0 -172 -125 -275.5t-331.5 -103.5t-331.5 115q-90 82 -121 258h272q31 -168 187 -168q84 0 137 40t53 101q0 63 -42 96t-216 105q-82 33 -123 51.5t-103.5 55t-93 71.5t-54 88t-23.5 119z M303 627q0 -59 46 -97t204 -104l106 -47q127 76 127 194q0 55 -45 93.5t-204 107.5l-101 43q-133 -81 -133 -190z" />
<glyph unicode="&#xa8;" horiz-adv-x="681" d="M-2 1221v249h260v-249h-260zM422 1221v249h262v-249h-262z" />
<glyph unicode="&#xa9;" horiz-adv-x="1511" d="M-12 729.5q0 317.5 225 541.5t542.5 224t542 -225.5t224.5 -540.5q0 -317 -224.5 -541.5t-542 -224.5t-542.5 224.5t-225 542zM139 729q0 -254 180.5 -434t436.5 -180q254 0 434 180t180 434t-179 434t-435 180t-436.5 -180t-180.5 -434zM379 729q0 195 105.5 309.5 t283.5 114.5q246 0 334 -242l-162 -39q-53 139 -178 140q-94 0 -150.5 -73t-56.5 -198q0 -145 51 -221t148 -76q139 0 186 172l162 -55q-80 -260 -354 -260q-166 0 -267.5 117.5t-101.5 310.5z" />
<glyph unicode="&#xaa;" horiz-adv-x="788" d="M59 965q0 57 23.5 99t54.5 65.5t94.5 41t109.5 24.5t134 17l39 7q0 80 -23.5 106.5t-91.5 26.5q-129 0 -137 -105l-172 8q6 102 85 164t204 62q158 0 233 -74q63 -68 64 -174v-340h59v-135h-217v88q-96 -98 -205 -98q-113 0 -183.5 60.5t-70.5 156.5zM238 965 q0 -39 32.5 -67t79.5 -28q164 0 164 210v16q-174 -20 -225 -44t-51 -87z" />
<glyph unicode="&#xab;" horiz-adv-x="1236" d="M82 549l332 549h243l-327 -549l327 -549h-245zM594 549l332 549h243l-327 -549l327 -549h-245z" />
<glyph unicode="&#xac;" horiz-adv-x="1366" d="M127 817v215h1114v-702h-215v487h-899z" />
<glyph unicode="&#xad;" horiz-adv-x="747" d="M111 440v230h526v-230h-526z" />
<glyph unicode="&#xae;" horiz-adv-x="1511" d="M-12 729.5q0 317.5 224 541.5t544 224q317 0 540.5 -224t223.5 -541.5t-223.5 -542t-540.5 -224.5q-319 0 -543.5 224.5t-224.5 542zM139 729q0 -254 180.5 -435t436.5 -181q254 0 434 180t180 436t-180 436.5t-434 180.5q-256 0 -436.5 -181.5t-180.5 -435.5zM408 319 v814h387q131 0 201.5 -60.5t70.5 -171.5q0 -90 -59.5 -150.5t-159.5 -74.5q53 -20 81.5 -53t90.5 -140l96 -164h-203l-67 132q-63 119 -110.5 160.5t-119.5 41.5h-43v-334h-165zM573 782h134q104 0 145 26t41 91q0 104 -168 105h-152v-222z" />
<glyph unicode="&#xaf;" horiz-adv-x="681" d="M16 1253v217h648v-217h-648z" />
<glyph unicode="&#xb0;" horiz-adv-x="819" d="M90 1173.5q0 133.5 93 225.5t226.5 92t226.5 -92t93 -225.5t-93 -226.5t-226 -93q-131 0 -225.5 93t-94.5 226.5zM256 1173.5q0 -63.5 45 -108.5t108.5 -45t108.5 45t45 108.5t-45 107.5t-108.5 44t-108.5 -44t-45 -107.5z" />
<glyph unicode="&#xb1;" horiz-adv-x="1368" d="M127 -59v215h1114v-215h-1114zM127 748v215h448v450h216v-450h450v-215h-450v-449h-216v449h-448z" />
<glyph unicode="&#xb2;" horiz-adv-x="831" d="M86 1255q6 133 88 203t238 70q141 0 226 -63.5t85 -166.5q0 -84 -78 -163q-23 -23 -146.5 -122.5t-131.5 -107.5h235v64h139v-215h-649v147l264 195q168 125 168 190q0 76 -108 76q-55 0 -84 -23.5t-45 -83.5h-201z" />
<glyph unicode="&#xb3;" horiz-adv-x="831" d="M70 993h200q20 -57 48 -77.5t85 -20.5q63 0 104.5 31.5t41.5 83.5q0 43 -32 71.5t-81 28.5q-18 0 -47 -12l-94 106l201 158h-263v-74h-143v217h649v-139l-194 -156q205 -18 205 -217q0 -119 -93.5 -188.5t-253.5 -69.5q-162 0 -240.5 62.5t-92.5 195.5z" />
<glyph unicode="&#xb4;" horiz-adv-x="681" d="M152 1217l167 299h349l-322 -299h-194z" />
<glyph unicode="&#xb5;" horiz-adv-x="1251" d="M137 -408v1504h279v-516q0 -238 63 -316q53 -63 139 -63q66 0 118 43t69 110q18 74 18 224v518h279v-1096h-260v127q-82 -154 -215 -154q-141 0 -211 154v-535h-279z" />
<glyph unicode="&#xb6;" horiz-adv-x="1138" d="M-10 1053q0 109 43 198.5t119 139.5q76 51 138 63t234 12h596v-260h-112v-1607h-238v1607h-143v-1607h-244v1046q-186 14 -289.5 121t-103.5 287z" />
<glyph unicode="&#xb7;" horiz-adv-x="661" d="M162 559v295h338v-295h-338z" />
<glyph unicode="&#xb8;" horiz-adv-x="681" d="M6 -403v120q109 -18 219 -18q147 0 148 82q0 69 -107 69q-68 0 -164 -16l31 119q100 23 178 22q143 0 221 -51t78 -147q0 -33 -17.5 -72t-41.5 -59q-84 -76 -295 -76q-107 0 -250 27z" />
<glyph unicode="&#xb9;" horiz-adv-x="831" d="M244 1210v185l147 112h139v-606h72v-147h-311v147h71v395z" />
<glyph unicode="&#xba;" horiz-adv-x="788" d="M47 1104q0 168 98.5 272.5t255.5 104.5q143 0 242.5 -106.5t99.5 -260.5q0 -162 -97 -267.5t-245 -105.5q-154 0 -254 102.5t-100 260.5zM227 1110q0 -100 45 -159.5t121 -59.5t123 60.5t47 156.5q0 98 -47 160.5t-123 62.5q-74 0 -120 -60.5t-46 -160.5z" />
<glyph unicode="&#xbb;" horiz-adv-x="1236" d="M68 0l329 547l-327 551h245l328 -549l-330 -549h-245zM580 0l329 547l-327 551h245l328 -549l-330 -549h-245z" />
<glyph unicode="&#xbc;" horiz-adv-x="2048" d="M258 1210v185l148 112h139v-606h71v-147h-311v147h72v395zM475 -72l809 1592h164l-807 -1592h-166zM1073 162v131l383 397h203l-377 -395h178v63l174 181v-244h156v-133h-156v-94h74v-134h-315v132h67v96h-387z" />
<glyph unicode="&#xbd;" horiz-adv-x="2048" d="M209 1210v185l147 112h140v-606h71v-147h-311v147h72v395zM426 -72l811 1592h164l-809 -1592h-166zM1186 436q10 272 325 273q139 0 224.5 -63.5t85.5 -166.5q0 -84 -78 -164q-23 -23 -146.5 -122t-132.5 -107h236v64h139v-216h-649v148l264 194q168 125 168 191 q0 76 -109 76q-55 0 -82.5 -22.5t-46.5 -84.5h-198z" />
<glyph unicode="&#xbe;" horiz-adv-x="2048" d="M184 993h201q20 -57 48 -77.5t85 -20.5q63 0 104.5 31.5t41.5 83.5q0 43 -32 71.5t-81 28.5q-18 0 -47 -12l-94 106l200 158h-262v-74h-143v217h649v-139l-195 -156q205 -18 205 -217q0 -119 -93 -188.5t-253 -69.5q-162 0 -241 62.5t-93 195.5zM549 -72l809 1592h164 l-809 -1592h-164zM1147 160v129l383 399h203l-377 -395h178v65l174 179v-244h156v-133h-156v-92h74v-134h-316v132h68v94h-387z" />
<glyph unicode="&#xbf;" horiz-adv-x="1130" d="M80 82q0 207 153 330q70 55 207 92v293h265v-445q-109 -4 -172.5 -23.5t-112.5 -64.5q-66 -66 -66 -162q0 -94 59.5 -156.5t149.5 -62.5q94 0 146.5 54.5t72.5 173.5h275q-16 -135 -53 -211q-121 -250 -435 -250q-215 0 -352 121t-137 311zM432 934v252h289v-252h-289z " />
<glyph unicode="&#xc0;" horiz-adv-x="1492" d="M66 0v236h110l402 1208h346l397 -1208h109v-236h-332l-94 313h-508l-95 -313h-335zM354 1864h346l164 -299h-192zM559 535h381l-188 639z" />
<glyph unicode="&#xc1;" horiz-adv-x="1492" d="M66 0v236h110l402 1208h346l397 -1208h109v-236h-332l-94 313h-508l-95 -313h-335zM559 535h381l-188 639zM598 1565l168 299h348l-321 -299h-195z" />
<glyph unicode="&#xc2;" horiz-adv-x="1492" d="M66 0v236h110l402 1208h346l397 -1208h109v-236h-332l-94 313h-508l-95 -313h-335zM377 1565l229 286h289l221 -286h-248l-120 153l-123 -153h-248zM559 535h381l-188 639z" />
<glyph unicode="&#xc3;" horiz-adv-x="1492" d="M66 0v236h110l402 1208h346l397 -1208h109v-236h-332l-94 313h-508l-95 -313h-335zM387 1565v15q0 80 20 135q22 60 59.5 84t65 32t54.5 8q57 0 186 -55q80 -31 113 -31q61 0 63 86h158q1 -15 1 -29q0 -70 -17 -120q-20 -61 -56.5 -86t-66 -34t-60.5 -9q-59 0 -194 53 q-80 33 -109 33q-59 0 -61 -82h-156zM559 535h381l-188 639z" />
<glyph unicode="&#xc4;" horiz-adv-x="1492" d="M66 0v236h110l402 1208h346l397 -1208h109v-236h-332l-94 313h-508l-95 -313h-335zM403 1569v250h261v-250h-261zM559 535h381l-188 639zM827 1569v250h263v-250h-263z" />
<glyph unicode="&#xc5;" horiz-adv-x="1492" d="M66 0v236h110l402 1208h346l397 -1208h109v-236h-332l-94 313h-508l-95 -313h-335zM506 1775.5q0 100.5 69.5 171t170 70.5t171 -70.5t70.5 -171t-70.5 -170t-171.5 -69.5q-98 0 -168.5 69.5t-70.5 170zM559 535h381l-188 639zM643 1778q0 -43 29.5 -74t72.5 -31t73 30 t30 73t-30 73.5t-73 30.5t-72.5 -29.5t-29.5 -72.5z" />
<glyph unicode="&#xc6;" horiz-adv-x="2091" d="M70 0v227h88l540 1217h1287v-447h-232v215h-465v-372h453v-232h-453v-377h471v240h246v-471h-1010v606h-409l-269 -606h-247zM686 825h309v387h-135z" />
<glyph unicode="&#xc7;" horiz-adv-x="1472" d="M70 715q0 334 182 550t465 216q90 0 161.5 -17.5t122 -53.5t76 -62.5t60.5 -69.5v166h252v-500h-261q-37 96 -88 158q-111 127 -276 127q-178 0 -276.5 -135.5t-98.5 -378.5q0 -233 102.5 -368.5t278.5 -135.5q156 0 262 119q51 59 90 166h297q-141 -487 -573 -529 q195 -35 194 -190q0 -33 -17 -72t-42 -59q-84 -76 -295 -76q-106 0 -250 27v120q109 -18 219 -18q147 0 148 82q0 70 -107 70q-68 0 -164 -17l31 119q68 14 76 14q-256 35 -412.5 239t-156.5 509z" />
<glyph unicode="&#xc8;" horiz-adv-x="1280" d="M55 0v236h117v972h-115v236h1106v-453h-241v217h-455v-346h453v-235h-453v-391h469v241h256v-477h-1137zM289 1864h346l164 -299h-193z" />
<glyph unicode="&#xc9;" horiz-adv-x="1280" d="M55 0v236h117v972h-115v236h1106v-453h-241v217h-455v-346h453v-235h-453v-391h469v241h256v-477h-1137zM451 1565l167 299h349l-322 -299h-194z" />
<glyph unicode="&#xca;" horiz-adv-x="1280" d="M55 0v236h117v972h-115v236h1106v-453h-241v217h-455v-346h453v-235h-453v-391h469v241h256v-477h-1137zM270 1565l230 286h288l222 -286h-248l-121 153l-123 -153h-248z" />
<glyph unicode="&#xcb;" horiz-adv-x="1280" d="M55 0v236h117v972h-115v236h1106v-453h-241v217h-455v-346h453v-235h-453v-391h469v241h256v-477h-1137zM297 1569v250h260v-250h-260zM721 1569v250h262v-250h-262z" />
<glyph unicode="&#xcc;" horiz-adv-x="641" d="M-113 1864h346l164 -299h-192zM59 0v236h117v972h-115v236h521v-236h-111v-972h113v-236h-525z" />
<glyph unicode="&#xcd;" horiz-adv-x="641" d="M59 0v236h117v972h-115v236h521v-236h-111v-972h113v-236h-525zM213 1565l168 299h348l-321 -299h-195z" />
<glyph unicode="&#xce;" horiz-adv-x="641" d="M-49 1565l229 286h289l221 -286h-248l-120 153l-123 -153h-248zM59 0v236h117v972h-115v236h521v-236h-111v-972h113v-236h-525z" />
<glyph unicode="&#xcf;" horiz-adv-x="641" d="M-23 1569v250h261v-250h-261zM59 0v236h117v972h-115v236h521v-236h-111v-972h113v-236h-525zM401 1569v250h263v-250h-263z" />
<glyph unicode="&#xd0;" horiz-adv-x="1492" d="M70 0v236h112v393h-112v186h112v393h-110v236h645q334 0 522 -192.5t188 -532.5q0 -334 -167 -524q-174 -195 -517 -195h-673zM477 236h248q182 0 282.5 123.5t100.5 345.5q0 276 -129 397q-111 106 -303 106h-199v-393h348v-184h-348v-395z" />
<glyph unicode="&#xd1;" horiz-adv-x="1622" d="M63 0v236h117v972h-114v236h499l619 -1118v882h-119v236h496v-236h-115v-1208h-397l-607 1094v-858h113v-236h-492zM453 1565q0 8 -1 15q0 80 20 135q22 60 59.5 84t65.5 32t54 8q57 0 187 -55q80 -31 112 -31q61 0 64 86h157q1 -15 1 -29q0 -70 -17 -120 q-20 -61 -56 -86t-65.5 -34t-60.5 -9q-59 0 -195 53q-80 33 -108 33q-59 0 -62 -82h-155z" />
<glyph unicode="&#xd2;" horiz-adv-x="1536" d="M76 733q0 309 188.5 528.5t501.5 219.5q176 0 312 -64.5t218 -175.5t123 -243t41 -279q0 -346 -190.5 -553t-507.5 -207q-305 0 -495.5 214t-190.5 560zM377 1864h346l164 -299h-193zM395 741q0 -303 129 -430q100 -100 250 -100q131 0 236 100q131 125 131 430 q0 231 -95.5 358.5t-271.5 127.5q-178 0 -278.5 -128.5t-100.5 -357.5z" />
<glyph unicode="&#xd3;" horiz-adv-x="1536" d="M76 733q0 309 188.5 528.5t501.5 219.5q176 0 312 -64.5t218 -175.5t123 -243t41 -279q0 -346 -190.5 -553t-507.5 -207q-305 0 -495.5 214t-190.5 560zM395 741q0 -303 129 -430q100 -100 250 -100q131 0 236 100q131 125 131 430q0 231 -95.5 358.5t-271.5 127.5 q-178 0 -278.5 -128.5t-100.5 -357.5zM662 1565l167 299h349l-322 -299h-194z" />
<glyph unicode="&#xd4;" horiz-adv-x="1536" d="M76 733q0 309 188.5 528.5t501.5 219.5q176 0 312 -64.5t218 -175.5t123 -243t41 -279q0 -346 -190.5 -553t-507.5 -207q-305 0 -495.5 214t-190.5 560zM395 741q0 -303 129 -430q100 -100 250 -100q131 0 236 100q131 125 131 430q0 231 -95.5 358.5t-271.5 127.5 q-178 0 -278.5 -128.5t-100.5 -357.5zM399 1565l230 286h289l221 -286h-248l-121 153l-123 -153h-248z" />
<glyph unicode="&#xd5;" horiz-adv-x="1536" d="M76 733q0 309 188.5 528.5t501.5 219.5q176 0 312 -64.5t218 -175.5t123 -243t41 -279q0 -346 -190.5 -553t-507.5 -207q-305 0 -495.5 214t-190.5 560zM395 741q0 -303 129 -430q100 -100 250 -100q131 0 236 100q131 125 131 430q0 231 -95.5 358.5t-271.5 127.5 q-178 0 -278.5 -128.5t-100.5 -357.5zM410 1565q0 8 -1 15q0 80 20 135q22 60 59.5 84t65.5 32t54 8q57 0 187 -55q80 -31 112 -31q61 0 64 86h157q1 -15 1 -29q0 -70 -17 -120q-20 -61 -56 -86t-65.5 -34t-60.5 -9q-59 0 -195 53q-80 33 -108 33q-59 0 -62 -82h-155z" />
<glyph unicode="&#xd6;" horiz-adv-x="1536" d="M76 733q0 309 188.5 528.5t501.5 219.5q176 0 312 -64.5t218 -175.5t123 -243t41 -279q0 -346 -190.5 -553t-507.5 -207q-305 0 -495.5 214t-190.5 560zM395 741q0 -303 129 -430q100 -100 250 -100q131 0 236 100q131 125 131 430q0 231 -95.5 358.5t-271.5 127.5 q-178 0 -278.5 -128.5t-100.5 -357.5zM426 1569v250h260v-250h-260zM850 1569v250h262v-250h-262z" />
<glyph unicode="&#xd7;" horiz-adv-x="1366" d="M158 1049l151 151l375 -375l375 375l151 -151l-372 -375l370 -371l-151 -151l-371 370l-373 -370l-151 151l370 371z" />
<glyph unicode="&#xd8;" horiz-adv-x="1536" d="M76 733q0 309 188.5 528.5t501.5 219.5q262 0 438 -146l139 158l121 -107l-151 -172q147 -205 147 -495q0 -346 -190.5 -553t-507.5 -207q-246 0 -426 147l-125 -141l-121 103l137 155q-151 207 -151 510zM395 741q0 -174 39 -282l588 669q-94 98 -248 99 q-178 0 -278.5 -128.5t-100.5 -357.5zM520 315q104 -104 254 -104q131 0 236 100q131 125 131 430q0 137 -35 238z" />
<glyph unicode="&#xd9;" horiz-adv-x="1556" d="M61 1208v236h525v-236h-115v-673q0 -147 83 -232.5t220 -85.5q145 0 229 84t84 234v673h-112v236h520v-236h-113v-684q0 -250 -165.5 -407.5t-425.5 -157.5q-281 0 -448 160t-167 428v661h-115zM428 1864h346l164 -299h-193z" />
<glyph unicode="&#xda;" horiz-adv-x="1556" d="M61 1208v236h525v-236h-115v-673q0 -147 83 -232.5t220 -85.5q145 0 229 84t84 234v673h-112v236h520v-236h-113v-684q0 -250 -165.5 -407.5t-425.5 -157.5q-281 0 -448 160t-167 428v661h-115zM590 1565l168 299h348l-322 -299h-194z" />
<glyph unicode="&#xdb;" horiz-adv-x="1556" d="M61 1208v236h525v-236h-115v-673q0 -147 83 -232.5t220 -85.5q145 0 229 84t84 234v673h-112v236h520v-236h-113v-684q0 -250 -165.5 -407.5t-425.5 -157.5q-281 0 -448 160t-167 428v661h-115zM410 1565l229 286h289l221 -286h-248l-121 153l-123 -153h-247z" />
<glyph unicode="&#xdc;" horiz-adv-x="1556" d="M61 1208v236h525v-236h-115v-673q0 -147 83 -232.5t220 -85.5q145 0 229 84t84 234v673h-112v236h520v-236h-113v-684q0 -250 -165.5 -407.5t-425.5 -157.5q-281 0 -448 160t-167 428v661h-115zM436 1569v250h260v-250h-260zM860 1569v250h262v-250h-262z" />
<glyph unicode="&#xdd;" horiz-adv-x="1280" d="M66 1208v236h309l266 -549l266 549h310v-236h-105l-326 -622v-350h113v-236h-522v236h115v352l-320 620h-106zM451 1565l167 299h349l-322 -299h-194z" />
<glyph unicode="&#xde;" d="M59 1235v209h498v-209h-88v-74h238q236 0 367.5 -118.5t131.5 -325.5q0 -190 -131 -309t-346 -119h-260v-72h119v-217h-527v217h115v1018h-117zM469 506h190q115 0 183.5 59.5t68.5 157.5q0 104 -70.5 163.5t-195.5 59.5h-176v-440z" />
<glyph unicode="&#xdf;" horiz-adv-x="1280" d="M51 0v205h105v864q0 143 66.5 254t183.5 160q104 41 258 41q195 0 320.5 -94.5t125.5 -239.5q0 -66 -18.5 -117t-54.5 -85t-63.5 -50t-68.5 -37q123 -53 180 -110q127 -123 127 -314q0 -231 -133 -362t-368 -131q-27 0 -150 10v213q70 -4 84 -4q145 0 213 67 q82 76 82 205q0 84 -40 149.5t-109 92.5q-72 29 -197 28v211q131 4 192.5 47.5t61.5 129.5t-54.5 134t-150.5 48q-90 0 -156.5 -65.5t-66.5 -153.5v-1096h-369z" />
<glyph unicode="&#xe0;" horiz-adv-x="1216" d="M78 319q0 68 23.5 122.5t55 90t94 65.5t111 46t136.5 30.5t140 19.5l153 16q-2 127 -43 169t-160 42q-84 0 -138.5 -45.5t-58.5 -120.5l-266 8q10 164 133 262t317 98q227 0 347 -99t120 -288v-522h95v-213h-340v129q-84 -84 -158 -118t-174 -34q-164 0 -275.5 98.5 t-111.5 243.5zM258 1516h346l164 -299h-193zM360 319q0 -68 49.5 -108.5t131.5 -40.5q104 0 174.5 69.5t70.5 172.5v106q-92 -8 -145 -15t-114.5 -21.5t-92.5 -34t-52.5 -51.5t-21.5 -77z" />
<glyph unicode="&#xe1;" horiz-adv-x="1216" d="M78 319q0 68 23.5 122.5t55 90t94 65.5t111 46t136.5 30.5t140 19.5l153 16q-2 127 -43 169t-160 42q-84 0 -138.5 -45.5t-58.5 -120.5l-266 8q10 164 133 262t317 98q227 0 347 -99t120 -288v-522h95v-213h-340v129q-84 -84 -158 -118t-174 -34q-164 0 -275.5 98.5 t-111.5 243.5zM360 319q0 -68 49.5 -108.5t131.5 -40.5q104 0 174.5 69.5t70.5 172.5v106q-92 -8 -145 -15t-114.5 -21.5t-92.5 -34t-52.5 -51.5t-21.5 -77zM461 1217l168 299h348l-322 -299h-194z" />
<glyph unicode="&#xe2;" horiz-adv-x="1216" d="M78 319q0 68 23.5 122.5t55 90t94 65.5t111 46t136.5 30.5t140 19.5l153 16q-2 127 -43 169t-160 42q-84 0 -138.5 -45.5t-58.5 -120.5l-266 8q10 164 133 262t317 98q227 0 347 -99t120 -288v-522h95v-213h-340v129q-84 -84 -158 -118t-174 -34q-164 0 -275.5 98.5 t-111.5 243.5zM240 1217l229 286h289l221 -286h-248l-121 153l-123 -153h-247zM360 319q0 -68 49.5 -108.5t131.5 -40.5q104 0 174.5 69.5t70.5 172.5v106q-92 -8 -145 -15t-114.5 -21.5t-92.5 -34t-52.5 -51.5t-21.5 -77z" />
<glyph unicode="&#xe3;" horiz-adv-x="1216" d="M78 319q0 68 23.5 122.5t55 90t94 65.5t111 46t136.5 30.5t140 19.5l153 16q-2 127 -43 169t-160 42q-84 0 -138.5 -45.5t-58.5 -120.5l-266 8q10 164 133 262t317 98q227 0 347 -99t120 -288v-522h95v-213h-340v129q-84 -84 -158 -118t-174 -34q-164 0 -275.5 98.5 t-111.5 243.5zM250 1216v16q0 80 19 135q22 60 60 84t65.5 32t54.5 8q57 0 186 -55q80 -31 113 -31q61 0 63 86h158q1 -15 0 -29q0 -70 -17 -121q-20 -61 -56 -85.5t-65.5 -34t-60.5 -9.5q-59 0 -195 54q-80 33 -108 32q-59 0 -61 -81zM360 319q0 -68 49.5 -108.5 t131.5 -40.5q104 0 174.5 69.5t70.5 172.5v106q-92 -8 -145 -15t-114.5 -21.5t-92.5 -34t-52.5 -51.5t-21.5 -77z" />
<glyph unicode="&#xe4;" horiz-adv-x="1216" d="M78 319q0 68 23.5 122.5t55 90t94 65.5t111 46t136.5 30.5t140 19.5l153 16q-2 127 -43 169t-160 42q-84 0 -138.5 -45.5t-58.5 -120.5l-266 8q10 164 133 262t317 98q227 0 347 -99t120 -288v-522h95v-213h-340v129q-84 -84 -158 -118t-174 -34q-164 0 -275.5 98.5 t-111.5 243.5zM266 1221v249h260v-249h-260zM360 319q0 -68 49.5 -108.5t131.5 -40.5q104 0 174.5 69.5t70.5 172.5v106q-92 -8 -145 -15t-114.5 -21.5t-92.5 -34t-52.5 -51.5t-21.5 -77zM690 1221v249h262v-249h-262z" />
<glyph unicode="&#xe5;" horiz-adv-x="1216" d="M78 319q0 68 23.5 122.5t55 90t94 65.5t111 46t136.5 30.5t140 19.5l153 16q-2 127 -43 169t-160 42q-84 0 -138.5 -45.5t-58.5 -120.5l-266 8q10 164 133 262t317 98q227 0 347 -99t120 -288v-522h95v-213h-340v129q-84 -84 -158 -118t-174 -34q-164 0 -275.5 98.5 t-111.5 243.5zM360 319q0 -68 49.5 -108.5t131.5 -40.5q104 0 174.5 69.5t70.5 172.5v106q-92 -8 -145 -15t-114.5 -21.5t-92.5 -34t-52.5 -51.5t-21.5 -77zM369 1427.5q0 100.5 69.5 171t170 70.5t171 -70.5t70.5 -171t-70.5 -170t-171.5 -69.5q-98 0 -168.5 69.5 t-70.5 170zM506 1429.5q0 -43.5 29.5 -74t72.5 -30.5t73 29.5t30 72.5t-30 74t-73 31t-72.5 -29.5t-29.5 -73z" />
<glyph unicode="&#xe6;" horiz-adv-x="1898" d="M63 299q0 193 161 284t567 128q2 115 -43.5 164t-145.5 49t-155.5 -42t-79.5 -137h-273q27 174 125 261q125 117 367 116q166 0 243.5 -47t135.5 -141q33 41 54 63.5t67.5 58.5t106.5 54t134 18q154 0 271.5 -82.5t183.5 -234.5q47 -111 57 -313h-784q6 -84 33.5 -144.5 t59.5 -89t74 -44t59 -17.5t36 -2q166 0 217 159h293q-41 -166 -182.5 -275.5t-321.5 -109.5q-88 0 -158.5 17.5t-127 56.5t-86 66.5t-79.5 81.5q-49 -55 -76.5 -82t-80.5 -67t-113.5 -57.5t-134.5 -17.5q-174 0 -289 92.5t-115 233.5zM350 313q0 -66 49.5 -104.5 t132.5 -38.5q78 0 144.5 39t91.5 100q23 49 23 215q-82 -10 -124 -16t-103.5 -18.5t-91.5 -25.5t-62.5 -34.5t-46 -50.5t-13.5 -66zM1071 682h471q-14 102 -75.5 160.5t-153.5 58.5q-191 0 -242 -219z" />
<glyph unicode="&#xe7;" horiz-adv-x="1193" d="M72 555q0 252 140 412.5t363 160.5q92 0 163 -33.5t147 -111.5v113h229v-404h-240q-41 106 -106 158q-63 51 -156 51q-117 0 -190.5 -93t-73.5 -239q0 -166 73 -264t197 -98q180 0 246 196h271q-45 -197 -178.5 -309t-327.5 -117q139 -2 214 -53t75 -145q0 -33 -17.5 -72 t-42.5 -59q-84 -76 -295 -76q-106 0 -250 27v120q109 -18 219 -18q147 0 148 82q0 70 -107 70q-68 0 -163 -17l30 119q92 20 160 22q-233 2 -380.5 163t-147.5 415z" />
<glyph unicode="&#xe8;" horiz-adv-x="1193" d="M57 551q0 250 152.5 413.5t382.5 163.5q131 0 240.5 -58t181.5 -165q47 -72 71.5 -154.5t29.5 -129t7 -125.5h-790q10 -98 44 -165t81 -92.5t77.5 -33.5t61.5 -8q160 0 223 163h285q-37 -178 -175 -281.5t-339 -103.5q-231 0 -382 162t-151 414zM246 1516h346l164 -299 h-193zM346 684h477q-14 104 -74.5 159.5t-156.5 55.5q-90 0 -154.5 -57.5t-91.5 -157.5z" />
<glyph unicode="&#xe9;" horiz-adv-x="1193" d="M57 551q0 250 152.5 413.5t382.5 163.5q131 0 240.5 -58t181.5 -165q47 -72 71.5 -154.5t29.5 -129t7 -125.5h-790q10 -98 44 -165t81 -92.5t77.5 -33.5t61.5 -8q160 0 223 163h285q-37 -178 -175 -281.5t-339 -103.5q-231 0 -382 162t-151 414zM346 684h477 q-14 104 -74.5 159.5t-156.5 55.5q-90 0 -154.5 -57.5t-91.5 -157.5zM449 1217l167 299h349l-322 -299h-194z" />
<glyph unicode="&#xea;" horiz-adv-x="1193" d="M57 551q0 250 152.5 413.5t382.5 163.5q131 0 240.5 -58t181.5 -165q47 -72 71.5 -154.5t29.5 -129t7 -125.5h-790q10 -98 44 -165t81 -92.5t77.5 -33.5t61.5 -8q160 0 223 163h285q-37 -178 -175 -281.5t-339 -103.5q-231 0 -382 162t-151 414zM227 1217l230 286h288 l222 -286h-248l-121 153l-123 -153h-248zM346 684h477q-14 104 -74.5 159.5t-156.5 55.5q-90 0 -154.5 -57.5t-91.5 -157.5z" />
<glyph unicode="&#xeb;" horiz-adv-x="1193" d="M57 551q0 250 152.5 413.5t382.5 163.5q131 0 240.5 -58t181.5 -165q47 -72 71.5 -154.5t29.5 -129t7 -125.5h-790q10 -98 44 -165t81 -92.5t77.5 -33.5t61.5 -8q160 0 223 163h285q-37 -178 -175 -281.5t-339 -103.5q-231 0 -382 162t-151 414zM254 1221v249h260v-249 h-260zM346 684h477q-14 104 -74.5 159.5t-156.5 55.5q-90 0 -154.5 -57.5t-91.5 -157.5zM678 1221v249h262v-249h-262z" />
<glyph unicode="&#xec;" horiz-adv-x="598" d="M-94 1516h346l164 -299h-193zM70 0v213h108v670h-104v213h372v-883h93v-213h-469z" />
<glyph unicode="&#xed;" horiz-adv-x="598" d="M70 0v213h108v670h-104v213h372v-883h93v-213h-469zM150 1217l167 299h349l-322 -299h-194z" />
<glyph unicode="&#xee;" horiz-adv-x="598" d="M-113 1217l230 286h289l221 -286h-248l-121 153l-123 -153h-248zM70 0v213h108v670h-104v213h372v-883h93v-213h-469z" />
<glyph unicode="&#xef;" horiz-adv-x="598" d="M-86 1221v249h260v-249h-260zM70 0v213h108v670h-104v213h372v-883h93v-213h-469zM338 1221v249h262v-249h-262z" />
<glyph unicode="&#xf0;" horiz-adv-x="1236" d="M74 551q0 236 132 391.5t335 155.5q72 0 143.5 -31t120.5 -86q-51 143 -223 276l-226 -96l-34 86l172 76q-80 57 -115 72l92 131q121 -43 225 -111l219 98l39 -92l2 -2l-161 -71q365 -297 368 -797q0 -246 -154.5 -412t-383.5 -166q-238 0 -394.5 164t-156.5 414z M356 555q0 -156 71 -251t187 -95q121 0 193 93t72 253q0 147 -75 242.5t-189.5 95.5t-186.5 -93t-72 -245z" />
<glyph unicode="&#xf1;" d="M63 0v213h103v670h-103v213h371v-140q43 45 75 74t105.5 61.5t155.5 32.5q145 0 242.5 -93t97.5 -234v-584h100v-213h-368v733q0 78 -43 121t-119 43q-98 0 -172 -84t-74 -195v-405h101v-213h-472zM270 1217v15q0 80 20 135q22 60 59.5 84t65 32t54.5 8q57 0 186 -55 q80 -31 113 -31q61 0 63 86h158q1 -15 1 -29q0 -70 -17 -121q-20 -61 -56 -85.5t-66 -34t-60 -9.5q-59 0 -195 54q-80 33 -109 32q-59 0 -61 -81h-156z" />
<glyph unicode="&#xf2;" horiz-adv-x="1236" d="M74 551q0 248 157.5 412.5t393.5 164.5q225 0 381.5 -167.5t156.5 -409.5q0 -246 -154.5 -412t-383.5 -166q-238 0 -394.5 164t-156.5 414zM227 1516h346l164 -299h-192zM356 555q0 -156 71 -251t187 -95q121 0 193 93t72 253q0 147 -75 242.5t-189.5 95.5t-186.5 -93 t-72 -245z" />
<glyph unicode="&#xf3;" horiz-adv-x="1236" d="M74 551q0 248 157.5 412.5t393.5 164.5q225 0 381.5 -167.5t156.5 -409.5q0 -246 -154.5 -412t-383.5 -166q-238 0 -394.5 164t-156.5 414zM356 555q0 -156 71 -251t187 -95q121 0 193 93t72 253q0 147 -75 242.5t-189.5 95.5t-186.5 -93t-72 -245zM471 1217l168 299h348 l-321 -299h-195z" />
<glyph unicode="&#xf4;" horiz-adv-x="1236" d="M74 551q0 248 157.5 412.5t393.5 164.5q225 0 381.5 -167.5t156.5 -409.5q0 -246 -154.5 -412t-383.5 -166q-238 0 -394.5 164t-156.5 414zM250 1217l229 286h289l221 -286h-248l-120 153l-123 -153h-248zM356 555q0 -156 71 -251t187 -95q121 0 193 93t72 253 q0 147 -75 242.5t-189.5 95.5t-186.5 -93t-72 -245z" />
<glyph unicode="&#xf5;" horiz-adv-x="1236" d="M74 551q0 248 157.5 412.5t393.5 164.5q225 0 381.5 -167.5t156.5 -409.5q0 -246 -154.5 -412t-383.5 -166q-238 0 -394.5 164t-156.5 414zM260 1217v15q0 80 20 135q22 60 59.5 84t65 32t54.5 8q57 0 186 -55q80 -31 113 -31q61 0 63 86h158q1 -15 1 -29q0 -70 -17 -121 q-20 -61 -56.5 -85.5t-66 -34t-60.5 -9.5q-59 0 -194 54q-80 33 -109 32q-59 0 -61 -81h-156zM356 555q0 -156 71 -251t187 -95q121 0 193 93t72 253q0 147 -75 242.5t-189.5 95.5t-186.5 -93t-72 -245z" />
<glyph unicode="&#xf6;" horiz-adv-x="1236" d="M74 551q0 248 157.5 412.5t393.5 164.5q225 0 381.5 -167.5t156.5 -409.5q0 -246 -154.5 -412t-383.5 -166q-238 0 -394.5 164t-156.5 414zM276 1221v249h261v-249h-261zM356 555q0 -156 71 -251t187 -95q121 0 193 93t72 253q0 147 -75 242.5t-189.5 95.5t-186.5 -93 t-72 -245zM700 1221v249h263v-249h-263z" />
<glyph unicode="&#xf7;" horiz-adv-x="1368" d="M129 578v204h1112v-204h-1112zM553 266q0 53 37 90t90 37t91 -37t38 -90t-37 -91t-90 -38t-91 38t-38 91zM553 1096q0 51 37 89t90 38t91 -37t38 -90.5t-37 -91t-90 -37.5t-91 38t-38 91z" />
<glyph unicode="&#xf8;" horiz-adv-x="1234" d="M74 551q0 248 157.5 412.5t393.5 164.5q178 0 317 -110l98 115l90 -78l-104 -119q137 -164 137 -385q0 -246 -154.5 -412t-383.5 -166q-190 0 -338 115l-103 -117l-86 78l105 121q-129 158 -129 381zM356 555q0 -98 31 -172l389 444q-70 66 -162 66q-115 0 -186.5 -93 t-71.5 -245zM453 279q59 -70 161 -70q121 0 193 93t72 253q0 98 -35 172z" />
<glyph unicode="&#xf9;" d="M53 1096h375v-709q0 -190 158 -190q98 0 174 87t76 199v400h-107v213h375v-883h100v-213h-362v133q-66 -53 -104 -80.5t-106.5 -53.5t-144.5 -26q-158 0 -242.5 93.5t-84.5 263.5v553h-107v213zM238 1516h346l164 -299h-193z" />
<glyph unicode="&#xfa;" d="M53 1096h375v-709q0 -190 158 -190q98 0 174 87t76 199v400h-107v213h375v-883h100v-213h-362v133q-66 -53 -104 -80.5t-106.5 -53.5t-144.5 -26q-158 0 -242.5 93.5t-84.5 263.5v553h-107v213zM440 1217l168 299h348l-321 -299h-195z" />
<glyph unicode="&#xfb;" d="M53 1096h375v-709q0 -190 158 -190q98 0 174 87t76 199v400h-107v213h375v-883h100v-213h-362v133q-66 -53 -104 -80.5t-106.5 -53.5t-144.5 -26q-158 0 -242.5 93.5t-84.5 263.5v553h-107v213zM219 1217l230 286h288l221 -286h-247l-121 153l-123 -153h-248z" />
<glyph unicode="&#xfc;" d="M53 1096h375v-709q0 -190 158 -190q98 0 174 87t76 199v400h-107v213h375v-883h100v-213h-362v133q-66 -53 -104 -80.5t-106.5 -53.5t-144.5 -26q-158 0 -242.5 93.5t-84.5 263.5v553h-107v213zM246 1221v249h260v-249h-260zM670 1221v249h262v-249h-262z" />
<glyph unicode="&#xfd;" horiz-adv-x="1193" d="M49 883v213h459v-213h-96l198 -555l176 555h-94v213h453v-213h-94l-385 -1143q-25 -74 -81.5 -100.5t-187.5 -26.5q-113 0 -172 10v221h148q45 0 65.5 23.5t40.5 97.5l8 27l-346 891h-92zM408 1217l167 299h349l-322 -299h-194z" />
<glyph unicode="&#xfe;" horiz-adv-x="1300" d="M66 1298v213h372v-526q152 143 324 143q207 0 337 -163.5t130 -429.5q0 -242 -136.5 -402t-340.5 -160q-94 0 -162 34t-148 118v-260h101v-213h-475v215h100v1431h-102zM440 551q0 -195 80 -277q80 -76 170 -75q117 0 186.5 93t69.5 249q0 168 -68.5 264t-187.5 96 q-98 0 -174 -80q-43 -43 -59.5 -103.5t-16.5 -166.5z" />
<glyph unicode="&#xff;" horiz-adv-x="1193" d="M49 883v213h459v-213h-96l198 -555l176 555h-94v213h453v-213h-94l-385 -1143q-25 -74 -81.5 -100.5t-187.5 -26.5q-113 0 -172 10v221h148q45 0 65.5 23.5t40.5 97.5l8 27l-346 891h-92zM254 1221v249h260v-249h-260zM678 1221v249h262v-249h-262z" />
<glyph unicode="&#x152;" horiz-adv-x="2154" d="M82 721q0 143 48 270t144.5 229.5t258 163t370.5 60.5h1155v-447h-233v220h-457v-353h449v-231h-449v-397h463v241h248v-477h-1233q-168 0 -320.5 57.5t-246.5 151.5q-90 92 -143.5 230.5t-53.5 281.5zM403 725q0 -242 117 -360q129 -133 393 -134h158v986 q-223 0 -334 -19q-162 -29 -248 -153.5t-86 -319.5z" />
<glyph unicode="&#x153;" horiz-adv-x="1984" d="M80 543q0 246 156.5 411.5t390.5 165.5q74 0 136 -15t112.5 -44t76 -48.5t62.5 -51.5q170 166 383 165q127 0 240.5 -56t179.5 -152q102 -152 114 -418h-778q6 -139 72.5 -219t177.5 -80q88 0 136 34.5t89 129.5h289q-29 -113 -89.5 -193t-134 -120t-141 -57.5 t-133.5 -17.5q-102 0 -185 27t-122 53.5t-96 77.5q-96 -88 -185 -123q-100 -41 -206 -41q-231 0 -388 164t-157 408zM362 559q0 -162 73 -261t192 -99q121 0 192.5 92t71.5 250q0 160 -71.5 255t-192.5 95q-119 0 -192 -91t-73 -241zM1163 688h473q-14 100 -74.5 157.5 t-152.5 57.5q-180 0 -246 -215z" />
<glyph unicode="&#x178;" horiz-adv-x="1280" d="M66 1208v236h309l266 -549l266 549h310v-236h-105l-326 -622v-350h113v-236h-522v236h115v352l-320 620h-106zM297 1569v250h260v-250h-260zM721 1569v250h262v-250h-262z" />
<glyph unicode="&#x2c6;" horiz-adv-x="681" d="M-29 1217l230 286h288l222 -286h-248l-121 153l-123 -153h-248z" />
<glyph unicode="&#x2dc;" horiz-adv-x="681" d="M-18 1217q0 8 -1 15q0 80 20 135q22 60 59.5 84t65.5 32t54 8q57 0 187 -55q80 -31 112 -31q61 0 64 86h157q1 -15 1 -29q0 -70 -17 -121q-20 -61 -56 -85.5t-66 -34t-60 -9.5q-59 0 -195 54q-80 33 -108 32q-59 0 -62 -81h-155z" />
<glyph unicode="&#x2013;" horiz-adv-x="1024" d="M-8 418v180h1042v-180h-1042z" />
<glyph unicode="&#x2014;" horiz-adv-x="2048" d="M-8 418v180h2070v-180h-2070z" />
<glyph unicode="&#x2018;" horiz-adv-x="598" d="M152 1241q0 88 42 161t107 99q61 27 145 27v-107q-74 -2 -105.5 -38.5t-35.5 -120.5h141v-295h-294v274z" />
<glyph unicode="&#x2019;" horiz-adv-x="598" d="M152 946v105q72 8 104.5 46t40.5 120h-145v294h294v-301q0 -113 -77 -186q-37 -37 -83 -53.5t-134 -24.5z" />
<glyph unicode="&#x201a;" horiz-adv-x="598" d="M160 0v295h297v-299q0 -109 -73 -189q-69 -76 -206 -75h-14l-2 100q88 16 112.5 47t26.5 121h-141z" />
<glyph unicode="&#x201c;" horiz-adv-x="854" d="M78 967v284q0 125 76.5 200t212.5 77v-101q-137 -8 -144 -165h144v-295h-289zM489 967v303q0 111 79 181.5t210 76.5v-101q-74 -12 -103.5 -48t-37.5 -117h141v-295h-289z" />
<glyph unicode="&#x201d;" horiz-adv-x="854" d="M76 948v103q78 16 107.5 51t31.5 112h-139v297h289v-319q0 -25 -11.5 -57.5t-38 -75.5t-89 -74t-150.5 -37zM487 948v105q72 10 105 48t35 116h-140v294h289v-307q0 -109 -77 -177.5t-212 -78.5z" />
<glyph unicode="&#x201e;" horiz-adv-x="854" d="M76 295h289v-301q0 -98 -72 -176q-41 -41 -85 -58.5t-132 -25.5v102q76 14 105.5 49t33.5 115h-139v295zM487 0v295h289v-299q0 -63 -30.5 -122.5t-79.5 -92.5q-66 -41 -177 -47v102q127 8 140 164h-142z" />
<glyph unicode="&#x2022;" horiz-adv-x="716" d="M61 723q0 123 87.5 210t207.5 87q123 0 210 -87t87 -210q0 -121 -87 -208t-210 -87q-121 0 -208 87t-87 208z" />
<glyph unicode="&#x2026;" horiz-adv-x="2048" d="M193 0v297h344v-297h-344zM852 0v297h344v-297h-344zM1511 0v295h344v-295h-344z" />
<glyph unicode="&#x2039;" horiz-adv-x="724" d="M82 547l332 551h243l-327 -549l327 -549h-245z" />
<glyph unicode="&#x203a;" horiz-adv-x="724" d="M68 0l329 547l-327 551h245l328 -549l-330 -549h-245z" />
<glyph unicode="&#x20ac;" d="M0 524l29 138h86q-2 18 -2 53q0 47 2 69h-115l29 138h100q43 254 180 406.5t328 152.5q86 0 153.5 -35t98.5 -71t67 -93v170h254v-446h-266q-27 98 -98 155q-74 57 -172 58q-92 0 -151.5 -79t-84.5 -218h475l-26 -138h-463q-2 -23 -2 -69q0 -37 2 -53h426l-29 -138h-381 q27 -137 90.5 -216t149.5 -79q98 0 145 32t76 106h303q-66 -223 -192.5 -309.5t-356.5 -86.5q-203 0 -345 149.5t-183 403.5h-127z" />
<glyph unicode="&#x2122;" horiz-adv-x="2048" d="M203 1323v141h665v-141h-245v-676h-166v676h-254zM967 647v817h260l149 -561l148 561h260v-817h-158v653l-176 -653h-152l-174 651v-651h-157z" />
<glyph unicode="&#xe000;" horiz-adv-x="1095" d="M0 1095h1095v-1095h-1095v1095z" />
<glyph unicode="&#xfb01;" horiz-adv-x="1300" d="M49 883v213h150v194q0 115 57 172.5t242 57.5q92 0 176 -13v-213q-6 -2 -44 1t-42 3q-37 0 -60.5 -9t-37 -21.5t-19.5 -43t-6 -54.5v-74h682v-883h104v-213h-477v213h105v670h-412v-670h108v-213h-483v213h107v670h-150zM846 1251v256h301v-256h-301z" />
<glyph unicode="&#xfb02;" horiz-adv-x="1300" d="M47 883v213h148v239q0 188 278 189q49 0 127 -6l39 -2q37 -4 57 -5h449v-1298h104v-213h-477v213h105v1079h-117q-10 0 -79 3t-81 3q-100 0 -119 -36q-15 -30 -15 -122q0 -20 1 -44h176v-213h-180v-670h108v-213h-483v213h107v670h-148z" />
<glyph unicode="&#xfb03;" horiz-adv-x="1961" d="M49 881v215h148v137q0 57 2 85t10 67.5t27.5 59t53.5 40t88 29t130 8.5q94 0 166 -13v-209q-35 1 -65 2h-28q-40 -1 -66 -10.5t-38 -32t-12 -63.5v-100h178v-213h-178v-670h108v-213h-479v213h105v668h-150zM731 881v215h148v137q0 57 2 85t10 67.5t27.5 59t53.5 40 t88 29t130 8.5q94 0 166 -13v-209q-35 1 -65 2h-28q-40 -1 -66 -10.5t-38 -32t-12 -63.5v-100h178v-213h-178v-670h108v-213h-479v213h105v668h-150zM1434 0v213h108v670h-104v213h372v-883h93v-213h-469zM1518 1249v258h294v-258h-294z" />
<glyph unicode="&#xfb04;" horiz-adv-x="1961" d="M49 881v215h148v137q0 57 2 85t10 67.5t27.5 59t53.5 40t88 29t130 8.5q94 0 166 -13v-209q-35 1 -65 2h-28q-40 -1 -66 -10.5t-38 -32t-12 -63.5v-100h178v-213h-178v-670h108v-213h-479v213h105v668h-150zM731 881v215h148v137q0 57 2 85t10 67.5t27.5 59t53.5 40 t88 29t130 8.5q94 0 166 -13v-209q-35 1 -65 2h-28q-40 -1 -66 -10.5t-38 -32t-12 -63.5v-100h178v-213h-178v-670h108v-213h-479v213h105v668h-150zM1432 0v213h106v1085h-106v213h374v-1298h105v-213h-479z" />
</font>
</defs>
</svg>
